<svg xmlns="http://www.w3.org/2000/svg" viewBox="0 0 32 32">
  <rect width="32" height="32" fill="#282a36"/>
  <!-- TDF-style block G — derived from gl1tch ANSI logo -->
  <!-- row 0: .XXXXXX. -->
  <rect x="4"  y="4"  width="4" height="5" fill="#bd93f9"/>
  <rect x="8"  y="4"  width="4" height="5" fill="#bd93f9"/>
  <rect x="12" y="4"  width="4" height="5" fill="#bd93f9"/>
  <rect x="16" y="4"  width="4" height="5" fill="#bd93f9"/>
  <rect x="20" y="4"  width="4" height="5" fill="#bd93f9"/>
  <rect x="24" y="4"  width="4" height="5" fill="#bd93f9"/>
  <!-- row 1: XX...... -->
  <rect x="0"  y="9"  width="4" height="5" fill="#bd93f9"/>
  <rect x="4"  y="9"  width="4" height="5" fill="#bd93f9"/>
  <!-- row 2: XX..XXX. -->
  <rect x="0"  y="14" width="4" height="5" fill="#bd93f9"/>
  <rect x="4"  y="14" width="4" height="5" fill="#bd93f9"/>
  <rect x="16" y="14" width="4" height="5" fill="#bd93f9"/>
  <rect x="20" y="14" width="4" height="5" fill="#bd93f9"/>
  <rect x="24" y="14" width="4" height="5" fill="#bd93f9"/>
  <!-- row 3: XX...XX. -->
  <rect x="0"  y="19" width="4" height="5" fill="#bd93f9"/>
  <rect x="4"  y="19" width="4" height="5" fill="#bd93f9"/>
  <rect x="20" y="19" width="4" height="5" fill="#bd93f9"/>
  <rect x="24" y="19" width="4" height="5" fill="#bd93f9"/>
  <!-- row 4: .XXXXXX. -->
  <rect x="4"  y="24" width="4" height="5" fill="#bd93f9"/>
  <rect x="8"  y="24" width="4" height="5" fill="#bd93f9"/>
  <rect x="12" y="24" width="4" height="5" fill="#bd93f9"/>
  <rect x="16" y="24" width="4" height="5" fill="#bd93f9"/>
  <rect x="20" y="24" width="4" height="5" fill="#bd93f9"/>
  <rect x="24" y="24" width="4" height="5" fill="#bd93f9"/>
</svg>
